<?xml version="1.0" encoding="iso-8859-1"?>
<!-- Uploaded to: SVG Repo, www.svgrepo.com, Generator: SVG Repo Mixer Tools -->
<!DOCTYPE svg PUBLIC "-//W3C//DTD SVG 1.1//EN" "http://www.w3.org/Graphics/SVG/1.1/DTD/svg11.dtd">
<svg fill="#000000" version="1.1" id="Capa_1" xmlns="http://www.w3.org/2000/svg" xmlns:xlink="http://www.w3.org/1999/xlink" 
	 width="800px" height="800px" viewBox="0 0 537.891 537.891"
	 xml:space="preserve">
<g>
	<path d="M516.375,62.754H21.516C9.682,62.754,0,72.436,0,84.27v369.352c0,11.834,9.562,21.516,21.516,21.516h494.859
		c11.834,0,21.516-9.682,21.516-21.516V84.27C537.891,72.436,528.328,62.754,516.375,62.754z M103.992,437.843
		c0,7.89-6.455,14.344-14.344,14.344H46.617c-7.889,0-14.344-6.454-14.344-14.344v-43.031c0-7.889,6.455-14.344,14.344-14.344
		h43.031c7.889,0,14.344,6.455,14.344,14.344V437.843z M103.992,341.022c0,7.89-6.455,14.344-14.344,14.344H46.617
		c-7.889,0-14.344-6.454-14.344-14.344v-43.031c0-7.889,6.455-14.344,14.344-14.344h43.031c7.889,0,14.344,6.455,14.344,14.344
		V341.022z M103.992,243.844c0,7.889-6.455,14.344-14.344,14.344H46.617c-7.889,0-14.344-6.455-14.344-14.344v-43.031
		c0-7.889,6.455-14.344,14.344-14.344h43.031c7.889,0,14.344,6.455,14.344,14.344V243.844z M103.992,147.023
		c0,7.889-6.455,14.344-14.344,14.344H46.617c-7.889,0-14.344-6.455-14.344-14.344v-43.031c0-7.889,6.455-14.344,14.344-14.344
		h43.031c7.889,0,14.344,6.455,14.344,14.344V147.023z M392.66,437.963c0,10.758-8.726,19.363-19.364,19.363H161.009
		c-10.639,0-19.364-8.726-19.364-19.363V297.274c0-10.758,8.726-19.364,19.364-19.364h212.287c10.639,0,19.364,8.726,19.364,19.364
		V437.963z M392.66,240.736c0,10.758-8.726,19.364-19.364,19.364H161.009c-10.639,0-19.364-8.726-19.364-19.364V100.048
		c0-10.758,8.726-19.364,19.364-19.364h212.287c10.639,0,19.364,8.726,19.364,19.364V240.736z M502.031,437.843
		c0,7.89-6.455,14.344-14.344,14.344h-43.031c-7.889,0-14.344-6.454-14.344-14.344v-43.031c0-7.889,6.455-14.344,14.344-14.344
		h43.031c7.889,0,14.344,6.455,14.344,14.344V437.843z M502.031,340.545c0,7.889-6.455,14.344-14.344,14.344h-43.031
		c-7.889,0-14.344-6.455-14.344-14.344v-43.031c0-7.89,6.455-14.344,14.344-14.344h43.031c7.889,0,14.344,6.454,14.344,14.344
		V340.545z M502.031,243.724c0,7.889-6.455,14.344-14.344,14.344h-43.031c-7.889,0-14.344-6.455-14.344-14.344v-43.031
		c0-7.889,6.455-14.344,14.344-14.344h43.031c7.889,0,14.344,6.455,14.344,14.344V243.724z M502.031,146.904
		c0,7.889-6.455,14.344-14.344,14.344h-43.031c-7.889,0-14.344-6.455-14.344-14.344v-43.031c0-7.889,6.455-14.344,14.344-14.344
		h43.031c7.889,0,14.344,6.455,14.344,14.344V146.904z"/>
</g>
</svg>